PathFileType	4	(X/Y/Z)	53_2_90_p0_0-188.trc
DataRate	CameraRate	NumFrames	NumMarkers	Units	OrigDataRate	OrigDataStartFrame	OrigNumFrames
59.0	59.0	6	27	m	59.0	118	189
Frame#	Time	RHip			RKnee			RAnkle			RBigToe			RSmallToe			RHeel			LHip			LKnee			LAnkle			LBigToe			LSmallToe			LHeel			Neck			Head			Nose			RShoulder			RElbow			RWrist			RThumb			RIndex			RPinky			LShoulder			LElbow			LWrist			LThumb			LIndex			LPinky			
		X1	Y1	Z1	X2	Y2	Z2	X3	Y3	Z3	X4	Y4	Z4	X5	Y5	Z5	X6	Y6	Z6	X7	Y7	Z7	X8	Y8	Z8	X9	Y9	Z9	X10	Y10	Z10	X11	Y11	Z11	X12	Y12	Z12	X13	Y13	Z13	X14	Y14	Z14	X15	Y15	Z15	X16	Y16	Z16	X17	Y17	Z17	X18	Y18	Z18	X19	Y19	Z19	X20	Y20	Z20	X21	Y21	Z21	X22	Y22	Z22	X23	Y23	Z23	X24	Y24	Z24	X25	Y25	Z25	X26	Y26	Z26	X27	Y27	Z27	
118	2.0	0.4249245497982733	0.6133927739722985	0.6358002605234409	0.3985749479992944	0.7648579091557789	1.085867379464588	0.3850660062443701	0.8833413514898844	1.5211722837944792	0.2920317517595151	0.6651776674924891	1.5353054082444133	0.35920458002839656	0.6892669455555147	1.5492746521850136	0.374581897347232	0.9274399572022227	1.5583499080073924	0.23170973262783873	0.6480800707056007	0.6218611298249943	0.23096207055772008	0.7490874031378121	1.063545206376514	0.18447987165542024	0.891667986068533	1.5071617497195786	0.1721114629958884	0.699305777099007	1.5333151766199031	0.11452751983814592	0.7593385495961735	1.5364810627195975	0.19498019821539936	0.9815232505830473	1.5771985624180527	0.24709402353229426	0.3827732793818839	0.16067807089544162	0.1790829514493338	0.22027170520390826	-0.06465228659056738	0.16951820040025178	0.19983564069681536	0.07303972884897027	0.4083650772238259	0.34637840962973754	0.22477693167593235	0.46866807552740525	0.47859433229945786	0.4864792525026943	0.3685299961239147	0.5181246785248648	0.6977344464743637	0.2601912697824117	0.5217744305000206	0.7774791190997822	0.2653402230254165	0.5239351262645866	0.7939263179970076	0.31890327562955406	0.5961866136799456	0.832416405251815	0.12023073087835665	0.4997164146474768	0.21189637536873185	0.16216046590391087	0.6451214383461819	0.46266565791294123	0.23940950962875734	0.5423350307401069	0.6676348269105329	0.26223330380949716	0.4845995229445433	0.7435596096678113	0.2805222493653156	0.5066221826909454	0.7798373090377149	0.2830715333490025	0.5319745363133253	0.7821263049192649
119	2.016949152542373	0.4206284169688342	0.6264400842699323	0.6366096525942351	0.39423507803603697	0.7510798618376539	1.0829613564609228	0.3850694739874777	0.8833152454188073	1.5212515768195485	0.2917841034442325	0.6647631906862072	1.5351909539697715	0.36411386346517494	0.691208409836435	1.5502908598004517	0.37457275905033	0.927615381530293	1.5586896153970018	0.23125587828364452	0.6479445475713301	0.633969123120897	0.23460094234572157	0.7639813892739329	1.0670126246082725	0.18453637824039013	0.8919749403405377	1.5073064734638089	0.17210893489772228	0.699450353138029	1.5334139212190572	0.11451861497275008	0.7596927439727061	1.5366638722173893	0.19520430218243734	0.9823141380794422	1.577451167580884	0.23973253366576533	0.3704063726688262	0.16132161354988914	0.17890815228738954	0.22134315562421947	-0.0615412507117961	0.16942380044569696	0.1998286663178922	0.07306733461360962	0.40145339222325843	0.35783989607218036	0.22417506540676096	0.4685661830259341	0.47849777485663775	0.4865245281011237	0.3721455503285337	0.5182112869466015	0.697800060418184	0.26131244398387915	0.5236792345725412	0.7825430565481466	0.2690870175633673	0.5228995799712897	0.7969404848935729	0.3234065937940818	0.5961107818686918	0.832203514708718	0.12008251474626853	0.499306865335633	0.21196163436534435	0.15894604449573907	0.633098783924211	0.46008191065198295	0.23972120339549777	0.5433428919413394	0.6749910433060063	0.27112021620818405	0.49862178569199495	0.7450546206677152	0.28520175624990024	0.5097036571746687	0.7876375621821755	0.283394748650899	0.5334444131806234	0.7860748296948
120	2.0338983050847457	0.41599851207223	0.6171914794309619	0.63965988671298	0.3994641933831922	0.7676260577952724	1.0907874209049444	0.38052764156646607	0.8684562393324337	1.5161046687659012	0.28854344833902557	0.6533078845506187	1.5343210606562279	0.3577940915124882	0.6895888498821707	1.5538237238935273	0.37008171991746736	0.9460231481466345	1.5659677521757203	0.23000249046920368	0.6783193387322412	0.6320910772859808	0.2346037135736342	0.764195047774167	1.0670443553130644	0.18455029176602808	0.8915524616198766	1.5072197632791837	0.1713682889500509	0.6964835311324179	1.5286349600315428	0.11454228611912862	0.7589051952550981	1.5362958116042162	0.1917535105137762	0.9690562357490351	1.5725437123248227	0.23976000484264895	0.3703031419454475	0.16125916564698867	0.17603749243113154	0.21098317272785774	-0.05749752811700192	0.1657567866114002	0.1991638181405713	0.07316277270868644	0.40148030019500025	0.3578309118985114	0.22425943331611878	0.4686291049714574	0.4783209099984039	0.48656382841814017	0.37212534701941036	0.5186677269467818	0.6946748669624865	0.26132602032788854	0.5236975837152719	0.7827265491783932	0.26961668433977265	0.5225118939934088	0.7938195459781582	0.3234625065841078	0.5968204597203312	0.8324998437882238	0.11973377871599157	0.49968350868156447	0.21539497593498086	0.16219436567457426	0.6454069623718567	0.46048021570758135	0.2392980720208316	0.5416727899056186	0.6672666774270164	0.26686016105955596	0.49445567367018917	0.7407956384470832	0.2811333710277988	0.5087546755577086	0.7835229248302682	0.28413675326521814	0.5333612133974289	0.7814421956575077
121	2.0508474576271185	0.4203502299598969	0.6302029129277436	0.6408628106531798	0.3952982716408763	0.7536463898831737	1.0872830183608355	0.3804998310807922	0.8682142291561259	1.5159952951611342	0.28792259424178135	0.6516654595668521	1.530053750060567	0.3579362087909871	0.6899851660707398	1.553861855820275	0.37423738060078227	0.9277686696565683	1.5594889663117324	0.2341050664878471	0.6629738556000996	0.6348858937113283	0.23464491141908997	0.7642200699323202	1.066913238843506	0.18455600963048352	0.8917037382628404	1.5072491467999438	0.1720360553152169	0.699420431235929	1.533332633106854	0.11442896512981766	0.7594368017077431	1.5364597116769547	0.19178116644759538	0.9681625791423369	1.572165884822469	0.23287047301699607	0.3711012116784203	0.1614521218300265	0.1757478161286168	0.21040853338932053	-0.05749657124652867	0.16570576351014604	0.19906143757338646	0.07316238220829904	0.40141680513762634	0.35771240617593936	0.2243518772803906	0.4727066717472104	0.4898412889591469	0.4872272699711754	0.37209747274345867	0.5187110085221706	0.6947068640756489	0.2615424234044098	0.5231300270416817	0.7862486903590141	0.27329447261070816	0.5214204300018085	0.7970078600517546	0.32692310845122674	0.609993807073481	0.834667123497801	0.11514014887940503	0.4983302989484592	0.21882116570665863	0.15899546912831283	0.6328614287108759	0.45965143490377697	0.23971196728081437	0.543483382310498	0.6710664034948428	0.27068892509493775	0.4969279226395422	0.7414846713769869	0.28520809924514506	0.5112126437899874	0.7841848937525627	0.28367339646711554	0.5342145140173853	0.7895214850189781
122	2.0677966101694913	0.4203601096211868	0.6300445273399765	0.6410008551669004	0.3944756911936268	0.7507546697964369	1.0821855028772376	0.385095760034851	0.8832128391660014	1.5212510258570113	0.28799550021259207	0.6519028840270353	1.5300813823504458	0.3579793689908088	0.6901240398978133	1.5537634176305437	0.3744341061322787	0.9279837477252996	1.5594425902060398	0.23406290123248966	0.6638283692387528	0.6311548778792624	0.23560905191060957	0.7628175360258734	1.0624865696613215	0.18841442690658958	0.8920313718089254	1.5031422359860567	0.17134728716469583	0.6972233580748625	1.5288564512057485	0.11444909387042086	0.7598396570556641	1.5365727822165147	0.1950003830929652	0.9820778625629779	1.5773824544654949	0.2327938340378268	0.3713770594766547	0.16518090903206456	0.17183308329224134	0.2097152899683616	-0.05750711486462384	0.16206772631340421	0.20861896304927183	0.07229710760228418	0.3984416977749769	0.36976315976018964	0.22381754829899503	0.46848289814423766	0.47838639317510245	0.48664537489497545	0.37218137250203953	0.5188312141136748	0.6947182659177319	0.26537915688852376	0.5237307811310891	0.7860648698189117	0.2735400287398419	0.5224472089714468	0.7969113976079483	0.3269513957432906	0.6102945199681615	0.8346961159668486	0.11502861246612205	0.4982632700668563	0.21892878192605605	0.15911469902451736	0.6324226149577287	0.45968664054086783	0.24436562617353666	0.5464042673161499	0.6792806830979465	0.27486674219804463	0.5011046488484884	0.7454323062374001	0.284588072993509	0.5094895174791346	0.7843485749732128	0.28713130747196025	0.5440332382937904	0.7912680907657653
123	2.0847457627118646	0.4204055480475645	0.6298534968750322	0.6410317056564938	0.3986501346510088	0.7647863052198026	1.0856347159572757	0.3851059874297125	0.8831593724379029	1.5213212971840404	0.287963662727164	0.6510257594267503	1.5297558398766533	0.35795898989400127	0.6896898114964732	1.5536073956839915	0.37446550728211186	0.9278962911843227	1.5594801516021695	0.2335745138551438	0.6642128644414914	0.6391636046614018	0.23473441790294913	0.7640855931334625	1.0667031340445101	0.1891894412377571	0.8947212368995255	1.5083508692335288	0.17140047484139986	0.6968425579291998	1.5287310380375443	0.1145800537822302	0.7595020026198023	1.5365101820440936	0.19501253621273154	0.9826599729889264	1.5777364414296529	0.23242333519752667	0.37158636380918353	0.16827719896390633	0.16838964986659025	0.21923578599966467	-0.05903635289472248	0.15892359582886903	0.19892191616070468	0.07604357684267292	0.40130768124491056	0.35772423950466226	0.22429184422176185	0.47267815081943854	0.489956924482934	0.48719166499167943	0.3686393896810907	0.5323908676880349	0.6963854832643369	0.2614810406096521	0.536469308150726	0.7879941230526153	0.2764530368201926	0.5227829219557163	0.8002138627784527	0.32623911778935144	0.6114890510607692	0.8379032032523631	0.11497172094781996	0.49813713405879895	0.2224402131701491	0.15911117310638154	0.6321356178815734	0.4632350367023268	0.24433477474828882	0.5465683462409874	0.6794057789184845	0.27143098185036035	0.4994402756867614	0.7452589765188324	0.28497743350437554	0.5104254509057136	0.7845425926156248	0.2876806943829241	0.5453246668447068	0.791517092385413
